<svg xmlns="http://www.w3.org/2000/svg" xmlns:xlink="http://www.w3.org/1999/xlink" width="100%" height="100%" viewBox="0 0 1500 1500">
  <defs>
    <style>
      <!-- .cls-1 {
        fill: none;
        stroke: #fff;
        stroke-width: 75px;
      } -->

<!-- 
      .cls-2 {
        fill: #FFF;
        filter: url(#filter);
      }

      .cls-2, .cls-3 {
        fill-rule: evenodd;
      }

      .cls-3 {
        fill: #FFF;
        filter: url(#filter-2);
      } -->
    </style>
    <!-- <filter id="filter" x="176.875" y="517.5" width="1158.035" height="297.375" filterUnits="userSpaceOnUse">
      <feFlood result="flood" flood-color="#fff"/>
      <feComposite result="composite" operator="in" in2="SourceGraphic"/>
      <feBlend result="blend" in2="SourceGraphic"/>
    </filter>
    <filter id="filter-2" x="527.438" y="914.25" width="460.624" height="233.37" filterUnits="userSpaceOnUse">
      <feFlood result="flood" flood-color="#fff"/>
      <feComposite result="composite" operator="in" in2="SourceGraphic"/>
      <feBlend result="blend" in2="SourceGraphic"/>
    </filter> -->
  </defs>
  <circle class="cls-1" cx="750" cy="750" r="710"/>
  <path id="Lean-S" class="cls-2"  d="M320.956,809.514l5.733-44.718H232.668V522.863l-55.8,4.587V809.514H320.956ZM440.2,814.483q28.279,0,45.864-15.862t25.607-43.38l-40.513-15.288q-0.385.771-7.644,17.964t-22.168,17.2q-13.383,0-19.874-20.448t-6.5-45.291H517.023a4.58,4.58,0,0,1,1.147-1.72,6.72,6.72,0,0,0,1.147-4.4q0-51.211-19.875-81.409t-57.33-30.194q-39.371,0-60.006,30.194t-20.639,81.409q0,50.451,20.257,80.836T440.2,814.483h0ZM414.976,678.419a79.32,79.32,0,0,1,3.822-25.225q3.816-11.466,9.937-17.964t12.612-6.5q12.99,0,19.111,13.377t6.115,36.309h-51.6Zm191.1,136.064q14.136,0,27.519-8.409t20.257-20.639l6.115,26.372,52.361-4.586A140.545,140.545,0,0,1,706.592,769V657.78q0-29.425-17.39-47.775t-52.17-18.346q-27.143,0-47.393,12.613T565.56,646.314l52.362,9.173q1.146-10.7,5.733-17.581t13.377-6.88q10.318,0,13,9.937t2.675,30.576q-37.838,2.293-66.312,19.3t-28.474,58.667q0,18.346,6.115,33.061t17.2,23.314a39.513,39.513,0,0,0,24.843,8.6h0Zm24.844-38.22q-9.943,0-15.1-7.836t-5.16-22.358q0-21.786,11.466-32.1t30.576-10.32v59.624a76.217,76.217,0,0,1-10.893,9.937,18.6,18.6,0,0,1-10.892,3.058h0Zm139.118,35.544,53.508-4.586V652.429q12.228-7.255,20.066-11.083t14.332-3.822q19.493,0,19.493,28.665V811.807l53.508-4.586V645.932q0-24.84-12.8-39.558t-33.06-14.715q-13.383,0-29.239,7.836t-32.3,22.358V594.335l-53.508,4.586V811.807Zm330.6-91.728V675.361h-107.4v44.718h107.4Zm142.94,94.786q25.605,0,46.44-11.466a84.272,84.272,0,0,0,32.87-32.3q12.045-20.827,12.04-47.966-2.685-47.388-53.89-76.441l-46.25-27.136a38.554,38.554,0,0,1-12.42-11.657,28.545,28.545,0,0,1-5.16-16.626q0-12.612,6.69-20.639,6.675-8.025,19.3-8.026,10.32,0,17.39,4.778t12.04,15.479q4.965,10.7,6.5,13.759l47.39-21.4q-9.945-28.665-30.58-43.189t-50.06-14.524q-25.23,0-45.29,10.7a80.357,80.357,0,0,0-31.73,30.194Q1157.2,577.9,1157.2,602.743a72.037,72.037,0,0,0,12.99,42.042q12.99,18.732,34.78,30.959l50.07,29.811A43.122,43.122,0,0,1,1268.8,719.7a36.845,36.845,0,0,1,5.35,19.492,32.423,32.423,0,0,1-7.84,21.021q-7.83,9.558-17.77,9.555-15.285,0-25.41-10.7-10.14-10.7-21.22-29.812l-4.58-7.644-47.4,22.167q11.085,32.49,34.98,51.789,23.88,19.3,58.66,19.3h0Z"/>
  <path id="Dev" class="cls-3"  d="M527.427,1143.64h55.058q28.448,0,46.8-15.75t26.764-41.45q8.409-25.68,8.412-56.58,0-58.117-22.33-86.873t-67.6-28.752H527.427V1143.64Zm44.658-35.78V950.023h5.2q18.654,0,27.988,12.082A61.531,61.531,0,0,1,617.2,990.552a241.138,241.138,0,0,1,2.6,37.468v10.4q0,29.37-9.023,49.4t-32.27,20.04h-6.424Zm192.088,39.76q22.632,0,36.705-12.69t20.494-34.72l-32.423-12.24q-0.309.615-6.118,14.38t-17.741,13.76q-10.71,0-15.905-16.36a119.164,119.164,0,0,1-5.2-36.25h81.669a3.6,3.6,0,0,1,.918-1.37,5.389,5.389,0,0,0,.918-3.52q0-40.98-15.906-65.153T765.7,969.293q-31.507,0-48.023,24.164t-16.517,65.153q0,40.38,16.211,64.69t46.8,24.32h0Zm-20.188-108.89a63.5,63.5,0,0,1,3.059-20.19q3.054-9.18,7.952-14.38t10.094-5.2q10.395,0,15.294,10.707t4.894,29.06H743.985Zm194.842,104.91,49.247-170.371-38.847,3.671-24.776,104.61L902.734,971.434l-51.388,3.671,48.023,168.535h39.458Z"/>
</svg>
